<mxfile host="app.diagrams.net" agent="Mozilla/5.0 (Windows NT 10.0; Win64; x64) AppleWebKit/537.36 (KHTML, like Gecko) Chrome/128.0.0.0 Safari/537.36 Edg/128.0.0.0" version="24.7.7">
  <diagram name="Page-1" id="UJcjWKoQjNmoq0MfFlIu">
    <mxGraphModel dx="609" dy="663" grid="1" gridSize="10" guides="1" tooltips="1" connect="1" arrows="1" fold="1" page="1" pageScale="1" pageWidth="850" pageHeight="1100" math="0" shadow="0">
      <root>
        <mxCell id="0" />
        <mxCell id="1" parent="0" />
        <mxCell id="glIkOdPxZU8p1S354e8d-5" style="edgeStyle=orthogonalEdgeStyle;rounded=0;orthogonalLoop=1;jettySize=auto;html=1;exitX=0.996;exitY=0.765;exitDx=0;exitDy=0;entryX=0;entryY=0.25;entryDx=0;entryDy=0;exitPerimeter=0;dashed=1;dashPattern=8 8;flowAnimation=1;" edge="1" parent="1" source="glIkOdPxZU8p1S354e8d-1" target="glIkOdPxZU8p1S354e8d-2">
          <mxGeometry relative="1" as="geometry" />
        </mxCell>
        <mxCell id="glIkOdPxZU8p1S354e8d-15" value="&lt;b&gt;(5) &lt;/b&gt;Protected Resource Request" style="edgeLabel;html=1;align=center;verticalAlign=middle;resizable=0;points=[];" vertex="1" connectable="0" parent="glIkOdPxZU8p1S354e8d-5">
          <mxGeometry x="-0.2641" y="5" relative="1" as="geometry">
            <mxPoint x="29" y="-10" as="offset" />
          </mxGeometry>
        </mxCell>
        <mxCell id="glIkOdPxZU8p1S354e8d-7" style="edgeStyle=orthogonalEdgeStyle;rounded=0;orthogonalLoop=1;jettySize=auto;html=1;exitX=0.992;exitY=0.078;exitDx=0;exitDy=0;entryX=0;entryY=0.25;entryDx=0;entryDy=0;exitPerimeter=0;dashed=1;dashPattern=8 8;flowAnimation=1;" edge="1" parent="1" source="glIkOdPxZU8p1S354e8d-1" target="glIkOdPxZU8p1S354e8d-3">
          <mxGeometry relative="1" as="geometry" />
        </mxCell>
        <mxCell id="glIkOdPxZU8p1S354e8d-11" value="&lt;b&gt;(1)&lt;/b&gt;&amp;nbsp;TMB-BFF Token Request" style="edgeLabel;html=1;align=center;verticalAlign=middle;resizable=0;points=[];" vertex="1" connectable="0" parent="glIkOdPxZU8p1S354e8d-7">
          <mxGeometry x="-0.1885" relative="1" as="geometry">
            <mxPoint x="23" y="-15" as="offset" />
          </mxGeometry>
        </mxCell>
        <mxCell id="glIkOdPxZU8p1S354e8d-1" value="Browser-Based Application" style="rounded=1;whiteSpace=wrap;html=1;" vertex="1" parent="1">
          <mxGeometry x="50" y="200" width="120" height="190" as="geometry" />
        </mxCell>
        <mxCell id="glIkOdPxZU8p1S354e8d-6" style="edgeStyle=orthogonalEdgeStyle;rounded=0;orthogonalLoop=1;jettySize=auto;html=1;exitX=0;exitY=0.75;exitDx=0;exitDy=0;entryX=0.998;entryY=0.917;entryDx=0;entryDy=0;entryPerimeter=0;dashed=1;dashPattern=8 8;flowAnimation=1;" edge="1" parent="1" source="glIkOdPxZU8p1S354e8d-2" target="glIkOdPxZU8p1S354e8d-1">
          <mxGeometry relative="1" as="geometry" />
        </mxCell>
        <mxCell id="glIkOdPxZU8p1S354e8d-16" value="&lt;b&gt;(6)&lt;/b&gt;&amp;nbsp;Protected Resource Response" style="edgeLabel;html=1;align=center;verticalAlign=middle;resizable=0;points=[];" vertex="1" connectable="0" parent="glIkOdPxZU8p1S354e8d-6">
          <mxGeometry x="0.0324" y="1" relative="1" as="geometry">
            <mxPoint x="5" y="15" as="offset" />
          </mxGeometry>
        </mxCell>
        <mxCell id="glIkOdPxZU8p1S354e8d-2" value="Resource Server" style="rounded=1;whiteSpace=wrap;html=1;" vertex="1" parent="1">
          <mxGeometry x="365" y="330" width="195" height="60" as="geometry" />
        </mxCell>
        <mxCell id="glIkOdPxZU8p1S354e8d-8" style="edgeStyle=orthogonalEdgeStyle;rounded=0;orthogonalLoop=1;jettySize=auto;html=1;exitX=0;exitY=0.75;exitDx=0;exitDy=0;entryX=0.993;entryY=0.236;entryDx=0;entryDy=0;entryPerimeter=0;dashed=1;dashPattern=8 8;flowAnimation=1;" edge="1" parent="1" source="glIkOdPxZU8p1S354e8d-3" target="glIkOdPxZU8p1S354e8d-1">
          <mxGeometry relative="1" as="geometry" />
        </mxCell>
        <mxCell id="glIkOdPxZU8p1S354e8d-12" value="&lt;b&gt;(4)&lt;/b&gt;&amp;nbsp;Token Response" style="edgeLabel;html=1;align=center;verticalAlign=middle;resizable=0;points=[];" vertex="1" connectable="0" parent="glIkOdPxZU8p1S354e8d-8">
          <mxGeometry x="0.0592" y="-1" relative="1" as="geometry">
            <mxPoint y="16" as="offset" />
          </mxGeometry>
        </mxCell>
        <mxCell id="glIkOdPxZU8p1S354e8d-9" style="edgeStyle=orthogonalEdgeStyle;rounded=0;orthogonalLoop=1;jettySize=auto;html=1;exitX=0.25;exitY=0;exitDx=0;exitDy=0;entryX=0.25;entryY=1;entryDx=0;entryDy=0;dashed=1;dashPattern=8 8;flowAnimation=1;" edge="1" parent="1" source="glIkOdPxZU8p1S354e8d-3" target="glIkOdPxZU8p1S354e8d-4">
          <mxGeometry relative="1" as="geometry" />
        </mxCell>
        <mxCell id="glIkOdPxZU8p1S354e8d-13" value="&lt;b&gt;(2)&lt;/b&gt;&amp;nbsp;Token&lt;div&gt;Request&lt;/div&gt;" style="edgeLabel;html=1;align=center;verticalAlign=middle;resizable=0;points=[];" vertex="1" connectable="0" parent="glIkOdPxZU8p1S354e8d-9">
          <mxGeometry x="0.0171" y="2" relative="1" as="geometry">
            <mxPoint as="offset" />
          </mxGeometry>
        </mxCell>
        <mxCell id="glIkOdPxZU8p1S354e8d-3" value="Token-Mediating Backend" style="rounded=1;whiteSpace=wrap;html=1;" vertex="1" parent="1">
          <mxGeometry x="360" y="200" width="200" height="60" as="geometry" />
        </mxCell>
        <mxCell id="glIkOdPxZU8p1S354e8d-10" style="edgeStyle=orthogonalEdgeStyle;rounded=0;orthogonalLoop=1;jettySize=auto;html=1;exitX=0.597;exitY=1.007;exitDx=0;exitDy=0;entryX=0.597;entryY=0.073;entryDx=0;entryDy=0;entryPerimeter=0;dashed=1;dashPattern=8 8;flowAnimation=1;exitPerimeter=0;" edge="1" parent="1" source="glIkOdPxZU8p1S354e8d-4" target="glIkOdPxZU8p1S354e8d-3">
          <mxGeometry relative="1" as="geometry" />
        </mxCell>
        <mxCell id="glIkOdPxZU8p1S354e8d-14" value="&lt;b&gt;(3)&lt;/b&gt;&amp;nbsp;Token&lt;div&gt;Response&lt;/div&gt;" style="edgeLabel;html=1;align=center;verticalAlign=middle;resizable=0;points=[];" vertex="1" connectable="0" parent="glIkOdPxZU8p1S354e8d-10">
          <mxGeometry x="-0.0779" y="7" relative="1" as="geometry">
            <mxPoint as="offset" />
          </mxGeometry>
        </mxCell>
        <mxCell id="glIkOdPxZU8p1S354e8d-4" value="Authorization Server" style="rounded=1;whiteSpace=wrap;html=1;" vertex="1" parent="1">
          <mxGeometry x="360" y="40" width="200" height="60" as="geometry" />
        </mxCell>
      </root>
    </mxGraphModel>
  </diagram>
</mxfile>
